<svg width="414" height="35" viewBox="0 0 414 35" fill="none" xmlns="http://www.w3.org/2000/svg">
<rect x="207" width="207" height="35" fill="#60265B"/>
<path d="M245.191 23V11.0952H254.715V13.4762H249.953V15.8571H254.715V18.2381H249.953V23H245.191ZM268.659 13.4762H271.04V23H266.278V18.2381H263.897V23H259.135V13.4762H261.516V11.0952H268.659V13.4762ZM263.897 15.8571H266.278V13.4762H263.897V15.8571ZM280.224 23V20.619H277.843V15.8571H275.462V11.0952H280.224V15.8571H284.985V11.0952H289.747V15.8571H287.366V20.619H284.985V23H280.224ZM296.552 23V20.619H294.171V13.4762H296.552V11.0952H303.695V13.4762H306.076V20.619H303.695V23H296.552ZM298.933 20.619H301.314V13.4762H298.933V20.619ZM310.498 23V11.0952H320.022V13.4762H322.403V15.8571H320.022V20.619H322.403V23H317.641V20.619H315.26V23H310.498ZM315.26 15.8571H317.641V13.4762H315.26V15.8571ZM326.825 23V11.0952H331.587V23H326.825ZM338.404 23V13.4762H336.023V11.0952H345.547V13.4762H343.166V23H338.404ZM359.491 13.4762H354.729V15.8571H359.491V18.2381H354.729V20.619H359.491V23H349.967V11.0952H359.491V13.4762ZM363.911 23V20.619H371.054V18.2381H366.292V15.8571H363.911V13.4762H366.292V11.0952H375.816V13.4762H368.673V15.8571H373.435V18.2381H375.816V20.619H373.435V23H363.911Z" fill="#150714"/>
<path d="M66.0886 23V11.0952H75.6124V13.4762H77.9934V15.8571H75.6124V18.2381H70.8505V23H66.0886ZM70.8505 15.8571H73.2315V13.4762H70.8505V15.8571ZM84.7964 23V20.619H82.4155V13.4762H84.7964V11.0952H91.9393V13.4762H94.3202V20.619H91.9393V23H84.7964ZM87.1774 20.619H89.5583V13.4762H87.1774V20.619ZM98.7423 23V20.619H105.885V18.2381H101.123V15.8571H98.7423V13.4762H101.123V11.0952H110.647V13.4762H103.504V15.8571H108.266V18.2381H110.647V20.619H108.266V23H98.7423ZM117.45 23V13.4762H115.069V11.0952H124.593V13.4762H122.212V23H117.45ZM129.013 23V20.619H136.156V18.2381H131.394V15.8571H129.013V13.4762H131.394V11.0952H140.918V13.4762H133.775V15.8571H138.537V18.2381H140.918V20.619H138.537V23H129.013Z" fill="#60265B"/>
</svg>
